# xmcd CD database file
#
# Track frame offsets:
#	150
#	17036
#	38256
#	60585
#	75742
#	105147
#	120028
#	138153
#	158057
#	181711
#	214423
#	230280
#
# Disc length: 3356 seconds
#
# Revision: 0
# Processed by: cddbd v1.5.2PL0 Copyright (c) Steve Scherf et al.
# Submitted via: CDex 1.51
#
DISCID=7d0d1a0c
DTITLE=Bethany and Rufus Roots Quartet - Live à FIP
DYEAR=2009
DGENRE=Jazz
TTITLE0=Who's gonna be your man ?
TTITLE1=Linin' Track
TTITLE2=No More
TTITLE3=If I Had my Way
TTITLE4=Sail Away Ladies
TTITLE5=This Train
TTITLE6=No Mercy in the Land
TTITLE7=Iraq
TTITLE8=Oh Death
TTITLE9=St James Infirmary
TTITLE10=900 Miles
TTITLE11=Mary Mack
EXTD=YEAR: 2009
EXTT0=
EXTT1=
EXTT2=
EXTT3=
EXTT4=
EXTT5=
EXTT6=
EXTT7=
EXTT8=
EXTT9=
EXTT10=
EXTT11=
PLAYORDER=
